<svg xmlns="http://www.w3.org/2000/svg" viewBox="0 0 302.62 58.56"><defs><style>.cls-1{fill:#fff;}</style></defs><g id="Layer_2" data-name="Layer 2"><g id="Layer_1-2" data-name="Layer 1"><path class="cls-1" d="M29.28,58.56A29.28,29.28,0,1,1,58.56,29.28,29.31,29.31,0,0,1,29.28,58.56Zm0-56.76A27.49,27.49,0,1,0,56.77,29.28,27.51,27.51,0,0,0,29.28,1.8Z"/><path class="cls-1" d="M29.28,51.8a22.52,22.52,0,0,1,0-45V8.44A20.84,20.84,0,1,0,50.12,29.28H51.8A22.54,22.54,0,0,1,29.28,51.8Z"/><path class="cls-1" d="M49.79,26.33C46,9.77,32.91,8.7,32.35,8.66L32.46,7c.15,0,14.92,1.16,19,19Z"/><path class="cls-1" d="M29.28,12.81a16.47,16.47,0,0,0-.48,32.93,3.85,3.85,0,0,0,.48,0h.49a16.47,16.47,0,0,0-.49-32.93Zm-.94,2.06v5.94H24a17,17,0,0,1,.84-2.1C25.83,16.6,27.09,15.31,28.34,14.87Zm1.88,0c1.26.44,2.51,1.73,3.53,3.84a17,17,0,0,1,.84,2.1H30.22Zm-5.63.6a13.28,13.28,0,0,0-1.49,2.41A20.53,20.53,0,0,0,22,20.81H17.4A14.64,14.64,0,0,1,24.59,15.47Zm9.38,0a14.62,14.62,0,0,1,7.2,5.34H36.58a20.53,20.53,0,0,0-1.12-2.93A13.28,13.28,0,0,0,34,15.47Zm-17.7,7.22H21.5a31.14,31.14,0,0,0-.66,5.65H14.72A14.57,14.57,0,0,1,16.27,22.69Zm7.17,0h4.9v5.65H22.72A28.12,28.12,0,0,1,23.44,22.69Zm6.78,0h4.9a28.12,28.12,0,0,1,.72,5.65H30.22Zm6.84,0H42.3a14.56,14.56,0,0,1,1.54,5.65H37.72A30.28,30.28,0,0,0,37.06,22.69ZM14.72,30.22h6.12a31.05,31.05,0,0,0,.65,5.65H16.27A14.48,14.48,0,0,1,14.72,30.22Zm8,0h5.62v5.65h-4.9A27.93,27.93,0,0,1,22.72,30.22Zm7.5,0h5.62a27.93,27.93,0,0,1-.72,5.65h-4.9Zm7.5,0h6.12a14.3,14.3,0,0,1-1.54,5.65H37.08A30.22,30.22,0,0,0,37.72,30.22ZM17.4,37.75H22a20.39,20.39,0,0,0,1.11,2.92,13.58,13.58,0,0,0,1.5,2.44A14.59,14.59,0,0,1,17.4,37.75Zm6.57,0h4.37v6c-1.25-.44-2.51-1.76-3.53-3.87A16.24,16.24,0,0,1,24,37.75Zm6.25,0h4.37a16.24,16.24,0,0,1-.84,2.09c-1,2.11-2.27,3.43-3.53,3.87v-6Zm6.36,0h4.59A14.66,14.66,0,0,1,34,43.11a13.58,13.58,0,0,0,1.5-2.44A20.39,20.39,0,0,0,36.58,37.75Z"/><path class="cls-1" d="M92.76,17.68l-3.4,2.92a9.69,9.69,0,0,0-7.63-3.4,9.64,9.64,0,0,0-9.84,9.92,10,10,0,0,0,17.55,6.4l3.36,2.92a14.45,14.45,0,0,1-11.07,5.08,14.78,14.78,0,0,1-10.52-4.08,13.82,13.82,0,0,1-4.28-10.32A13.82,13.82,0,0,1,71.21,16.8a14.64,14.64,0,0,1,10.52-4.11A14.08,14.08,0,0,1,92.76,17.68Z"/><path class="cls-1" d="M96.73,41V13.16h4.76V23.68a6.27,6.27,0,0,1,5.88-3.2c4.63,0,7.35,3.08,7.35,8.08V41H110V29.24c0-2.76-1.48-4.48-4-4.48a4.37,4.37,0,0,0-4.44,4.68V41Z"/><path class="cls-1" d="M135.32,23.8V20.88h4.8V41h-4.8V38.12c-.68,2-3.11,3.36-6.43,3.36a9.69,9.69,0,0,1-7.2-3A10.51,10.51,0,0,1,118.81,31a10.35,10.35,0,0,1,2.88-7.48,9.58,9.58,0,0,1,7.2-3C132.21,20.44,134.64,21.84,135.32,23.8Zm-1.43,11.56a5.91,5.91,0,0,0,1.79-4.4,5.91,5.91,0,0,0-1.79-4.4,6,6,0,0,0-4.36-1.76,5.79,5.79,0,0,0-4.28,1.76,6.1,6.1,0,0,0-1.68,4.4,6.1,6.1,0,0,0,1.68,4.4,5.79,5.79,0,0,0,4.28,1.76A6,6,0,0,0,133.89,35.36Z"/><path class="cls-1" d="M145.09,41V20.88h4.76v2.88c1-2,3.24-3.28,6.12-3.28,4.79,0,7.63,3.08,7.63,8.08V41h-4.8V29.24c0-2.76-1.6-4.48-4.27-4.48a4.49,4.49,0,0,0-4.68,4.68V41Z"/><path class="cls-1" d="M184.08,23.8V20.88h4.8v16.8c0,4.84-.68,7.8-3.4,9.92a11.29,11.29,0,0,1-7.11,2.24,16.38,16.38,0,0,1-9.76-2.92l2.32-3.56a12.22,12.22,0,0,0,6.92,2.2,7.3,7.3,0,0,0,4.43-1.2c1.28-.92,1.92-2.64,1.92-5.12v-1c-1,1.72-3.36,3-6.56,3a9.8,9.8,0,0,1-7.19-3,10.14,10.14,0,0,1-2.88-7.36,10.17,10.17,0,0,1,2.92-7.4,9.49,9.49,0,0,1,7.15-3C181,20.44,183.4,21.84,184.08,23.8Zm-1.44,11.44a5.85,5.85,0,0,0,1.8-4.36,5.77,5.77,0,0,0-1.8-4.32,6,6,0,0,0-4.36-1.76A5.79,5.79,0,0,0,174,26.56a6,6,0,0,0-1.68,4.32A6.07,6.07,0,0,0,174,35.24,5.75,5.75,0,0,0,178.28,37,5.94,5.94,0,0,0,182.64,35.24Z"/><path class="cls-1" d="M193,31a10.08,10.08,0,0,1,10.55-10.64,9.38,9.38,0,0,1,7.16,2.92,10,10,0,0,1,2.8,7.24c0,.6,0,1.16-.08,1.68H197.73c.16,3.2,2.51,5.28,6.07,5.28a7.42,7.42,0,0,0,5.44-2.32l2.88,2.8a11.18,11.18,0,0,1-8.48,3.6,10.72,10.72,0,0,1-7.71-2.84,10,10,0,0,1-3-7.56ZM208.6,28.8a3.92,3.92,0,0,0-1.52-3.08,5.16,5.16,0,0,0-3.56-1.32,6.2,6.2,0,0,0-3.88,1.28,4.4,4.4,0,0,0-1.79,3.12Z"/><path class="cls-1" d="M219.85,41V13.16h9c4.44,0,8,1.28,10.52,3.84a13.53,13.53,0,0,1,3.88,10.12,13.66,13.66,0,0,1-3.84,10.12c-2.56,2.52-6.08,3.8-10.52,3.8ZM223,38.16h5.63c7.52,0,11.48-4.32,11.48-11S236.12,16,228.56,16H223Z"/><path class="cls-1" d="M245.11,41,256.9,13.16h2.4L271.1,41h-3.36l-2.88-6.88H251.34L248.47,41Zm7.43-9.76h11.12L258.1,18Z"/><path class="cls-1" d="M273.59,27.12a13.9,13.9,0,0,1,4.2-10.32,14.84,14.84,0,0,1,20.59,0,13.79,13.79,0,0,1,4.24,10.32,13.87,13.87,0,0,1-4.24,10.36,14.5,14.5,0,0,1-24.79-10.36Zm3.07,0a11.47,11.47,0,0,0,3.24,8.32,11.09,11.09,0,0,0,8.2,3.28,10.94,10.94,0,0,0,8.16-3.28,11.43,11.43,0,0,0,3.24-8.32,11.34,11.34,0,0,0-3.24-8.28,11,11,0,0,0-8.16-3.32,11.13,11.13,0,0,0-8.2,3.32A11.38,11.38,0,0,0,276.66,27.12Z"/></g></g></svg>